<svg width="375" height="147" viewBox="0 0 375 147" fill="none" xmlns="http://www.w3.org/2000/svg">
<path d="M-237 8.47559L-215.5 13.3982C-194 18.2161 -151 28.0613 -108.2 30.6797C-65.3 33.2981 -22.7 28.6897 20.2 29.9465C63 31.2033 106 38.1159 148.8 42.3054C191.7 46.4948 234.3 47.9611 277.2 41.4675C320 34.9738 363 20.7297 405.8 18.7397C448.7 16.8545 491.3 27.3281 534.2 28.166C577 29.1086 620 20.3108 641.5 16.0166L663 11.6177V213.758H641.5C620 213.758 577 213.758 534.2 213.758C491.3 213.758 448.7 213.758 405.8 213.758C363 213.758 320 213.758 277.2 213.758C234.3 213.758 191.7 213.758 148.8 213.758C106 213.758 63 213.758 20.2 213.758C-22.7 213.758 -65.3 213.758 -108.2 213.758C-151 213.758 -194 213.758 -215.5 213.758H-237V8.47559Z" fill="#3AA61E"/>
<path d="M-242 65.1968L-220.5 56.2943C-199 47.3917 -156 29.5865 -113.2 26.9681C-70.3 24.3497 -27.7 36.9181 15.2 47.3917C58 57.8653 101 66.2442 143.8 63.1021C186.7 59.96 229.3 45.297 272.2 33.4618C315 21.5219 358 12.5145 400.8 6.85877C443.7 1.30775 486.3 -0.786957 529.2 0.260405C572 1.30777 615 5.49721 636.5 7.59194L658 9.68666V210.78H636.5C615 210.78 572 210.78 529.2 210.78C486.3 210.78 443.7 210.78 400.8 210.78C358 210.78 315 210.78 272.2 210.78C229.3 210.78 186.7 210.78 143.8 210.78C101 210.78 58 210.78 15.2 210.78C-27.7 210.78 -70.3 210.78 -113.2 210.78C-156 210.78 -199 210.78 -220.5 210.78H-242V65.1968Z" fill="#33831E"/>
<path d="M-240 75.2388L-218.5 74.5056C-197 73.8772 -154 72.4109 -111.2 72.8299C-68.3 73.1441 -25.7 75.2388 17.2 80.2661C60 85.3982 103 93.3581 145.8 88.0166C188.7 82.5703 231.3 63.7178 274.2 53.7679C317 43.8179 360 42.7705 402.8 45.7032C445.7 48.7405 488.3 55.6531 531.2 63.9273C574 72.0967 617 81.5229 638.5 86.2361L660 90.9492V208.254H638.5C617 208.254 574 208.254 531.2 208.254C488.3 208.254 445.7 208.254 402.8 208.254C360 208.254 317 208.254 274.2 208.254C231.3 208.254 188.7 208.254 145.8 208.254C103 208.254 60 208.254 17.2 208.254C-25.7 208.254 -68.3 208.254 -111.2 208.254C-154 208.254 -197 208.254 -218.5 208.254H-240V75.2388Z" fill="#124305"/>
<path d="M-244 103.577L-222.5 101.692C-201 99.7022 -158 95.9317 -115.2 99.5975C-72.3 103.263 -29.7 114.365 13.2 116.146C56 117.926 99 110.176 141.8 102.006C184.7 93.837 227.3 85.0392 270.2 89.9618C313 94.8844 356 113.318 398.8 120.649C441.7 127.981 484.3 124.21 527.2 120.126C570 116.146 613 111.956 634.5 109.862L656 107.767V194.698H634.5C613 194.698 570 194.698 527.2 194.698C484.3 194.698 441.7 194.698 398.8 194.698C356 194.698 313 194.698 270.2 194.698C227.3 194.698 184.7 194.698 141.8 194.698C99 194.698 56 194.698 13.2 194.698C-29.7 194.698 -72.3 194.698 -115.2 194.698C-158 194.698 -201 194.698 -222.5 194.698H-244V103.577Z" fill="#0D390A"/>
</svg>
